<svg class="icon" viewBox="0 0 1024 1024" xmlns="http://www.w3.org/2000/svg" width="NaN" height="NaN"><path d="M716.8 805.823V384.71c0-95.683-77.544-173.26-173.216-173.26H56.664c-3.754 0-6.795 3.023-6.795 6.74v587.63c0 3.717 3.041 6.727 6.796 6.727h130.061c3.755 0 6.793-3.027 6.793-6.765v-461.22c0-3.744 3.041-6.782 6.796-6.782H480c52.521 0 95.113 42.571 95.113 95.099v372.89c0 3.74 3.037 6.761 6.772 6.761H710.03c3.728 0 6.772-3.017 6.772-6.727m-262.649-.024a6.752 6.752 0 0 1-6.768 6.768H317.355c-3.755 0-6.796-3.027-6.796-6.768v-353.43c0-3.741 3.041-6.78 6.796-6.78h130.03a6.763 6.763 0 0 1 6.77 6.78v353.447-.017zm519.98 0c0 3.744-3.044 6.768-6.799 6.768h-130c-3.765 0-6.827-3.027-6.827-6.768V218.252c0-3.758 3.062-6.793 6.827-6.793h130a6.79 6.79 0 0 1 6.8 6.793v587.527z"/></svg>